<svg width="28" height="22" viewBox="0 0 28 22" fill="none" xmlns="http://www.w3.org/2000/svg">
<path fill-rule="evenodd" clip-rule="evenodd" d="M9.84965 11.4624C9.7075 11.4624 9.56118 11.4008 9.45248 11.2865L5.86129 7.51432C5.63972 7.28131 5.63972 6.90761 5.86129 6.67459C6.08287 6.44158 6.43822 6.44158 6.6598 6.67459L9.28526 9.43559V0.593525C9.28526 0.263789 9.5361 0 9.84965 0C10.1632 0 10.414 0.263789 10.414 0.593525V9.43559L13.0353 6.67459C13.2569 6.44158 13.6122 6.44158 13.8338 6.67459C14.0554 6.90761 14.0554 7.28131 13.8338 7.51432L10.2468 11.2865C10.1381 11.4052 9.99179 11.4624 9.84965 11.4624ZM11.1559 15.9995C11.0921 15.6115 11.0521 15.2153 11.0377 14.8125H3.65808C2.26174 14.8125 1.12878 13.6166 1.12878 12.1526V9.06573C1.12878 8.736 0.87794 8.47221 0.56439 8.47221C0.25084 8.47221 0 8.736 0 9.06573V12.1526C0 14.2761 1.643 15.9995 3.65808 15.9995H11.1559Z" fill="#7FB0A9"/>
<path d="M20.5 22C24.6421 22 28 18.6421 28 14.5C28 10.3579 24.6421 7 20.5 7C16.3579 7 13 10.3579 13 14.5C13 18.6421 16.3579 22 20.5 22Z" fill="#C93B3B"/>
<path d="M17.8935 17H18.5728V11.3665H17.8857L16.3865 12.444V13.1857L17.8778 12.1121H17.8935V17ZM22.0396 17.0976C23.1952 17.0976 24.0345 16.2856 24.0345 15.1729C24.0345 14.1032 23.2381 13.3107 22.1645 13.3107C21.4657 13.3107 20.8449 13.6737 20.5912 14.2242H20.5795C20.6029 12.7251 21.1377 11.8896 22.0786 11.8896C22.6369 11.8896 23.0898 12.2175 23.242 12.729H23.9565C23.7769 11.8428 23.0429 11.2689 22.0864 11.2689C20.7083 11.2689 19.9001 12.3815 19.9001 14.2789C19.9001 14.8879 19.9899 15.3954 20.1773 15.8288C20.5248 16.6408 21.1963 17.0976 22.0396 17.0976ZM22.0318 16.473C21.3095 16.473 20.7473 15.8991 20.7473 15.1768C20.7473 14.4585 21.2978 13.9275 22.0435 13.9275C22.7891 13.9275 23.3201 14.4585 23.3201 15.1963C23.3201 15.9069 22.7501 16.473 22.0318 16.473Z" fill="white"/>
</svg>
