<svg width="16" height="16" viewBox="0 0 16 16" fill="none" xmlns="http://www.w3.org/2000/svg">
<path d="M7.22458 14.5725L7.21355 14.562L7.2019 14.5522C5.11314 12.7948 3.42703 11.357 2.25831 10.0046C1.09443 8.6578 0.5 7.45846 0.5 6.18478C0.5 4.12556 2.17222 2.5 4.4 2.5C5.61967 2.5 6.84291 3.04947 7.62644 3.93017L8 4.35006L8.37356 3.93017C9.15709 3.04947 10.3803 2.5 11.6 2.5C13.8278 2.5 15.5 4.12556 15.5 6.18478C15.5 7.45846 14.9056 8.6578 13.7417 10.0046C12.573 11.357 10.8869 12.7948 8.7981 14.5522L8.78645 14.562L8.77542 14.5725L8 15.31L7.22458 14.5725Z" stroke="#7FB0A9"/>
</svg>
